<svg data-v-423bf9ae="" xmlns="http://www.w3.org/2000/svg" viewBox="0 0 273.6122545200999 183" class="iconAboveSlogan"><!----><!----><!----><g data-v-423bf9ae="" id="afb2bbf5-ba27-4268-bc0f-b7060fdfc853" fill="white" transform="matrix(6.1224488604322,0,0,6.1224488604322,0.6734721774623438,98.71428748000815)"><path d="M3.37 10.50L3.01 8.18L1.25 8.18L0.88 10.50L-0.11 10.50L1.46 0.70L2.80 0.70L4.37 10.50L3.37 10.50ZM1.41 7.20L2.86 7.20L2.13 2.67L1.41 7.20ZM7.85 0.70L8.83 0.70L8.83 10.50L7.85 10.50L7.85 10.50L7.83 10.50L5.89 4.03L5.89 10.50L4.91 10.50L4.91 0.70L5.89 0.70L5.89 0.71L7.85 7.18L7.85 0.70ZM10.72 0.70L10.72 10.50L9.74 10.50L9.74 0.70L10.72 0.70ZM15.62 0.70L17.11 0.70L17.11 10.50L16.13 10.50L16.13 3.53L15.04 9.79L13.71 9.79L12.61 3.53L12.61 10.50L11.63 10.50L11.63 0.70L13.13 0.70L14.38 7.95L15.62 0.70ZM21.55 1.68L19.00 1.68L19.00 4.62L21.04 4.62L21.04 5.60L19.00 5.60L19.00 9.52L21.55 9.52L21.55 10.50L18.02 10.50L18.02 4.62L19.00 4.62L18.02 1.68L18.02 0.70L21.55 0.70L21.55 1.68ZM28.53 2.86L27.55 2.86L27.55 1.81Q27.55 1.67 27.41 1.67L27.41 1.67L25.89 1.67Q25.75 1.67 25.75 1.81L25.75 1.81L25.75 4.47Q25.75 4.56 25.83 4.59L25.83 4.59L27.41 4.59Q27.89 4.59 28.21 4.92Q28.53 5.25 28.53 5.71L28.53 5.71L28.53 9.39Q28.53 9.81 28.27 10.12Q28 10.43 27.59 10.50L27.59 10.50L25.70 10.50Q25.30 10.43 25.03 10.12Q24.77 9.81 24.77 9.39L24.77 9.39L24.77 8.34L25.75 8.34L25.75 9.39Q25.75 9.53 25.89 9.53L25.89 9.53L27.41 9.53Q27.55 9.53 27.55 9.39L27.55 9.39L27.55 5.71Q27.55 5.61 27.47 5.59L27.47 5.59L25.89 5.59Q25.42 5.59 25.09 5.26Q24.77 4.93 24.77 4.47L24.77 4.47L24.77 1.81Q24.77 1.39 25.03 1.08Q25.30 0.77 25.70 0.70L25.70 0.70L27.59 0.70Q28 0.77 28.27 1.08Q28.53 1.39 28.53 1.81L28.53 1.81L28.53 2.86ZM32.97 1.68L30.42 1.68L30.42 4.62L32.47 4.62L32.47 5.60L30.42 5.60L30.42 9.52L32.97 9.52L32.97 10.50L29.44 10.50L29.44 4.62L30.42 4.62L29.44 1.68L29.44 0.70L32.97 0.70L32.97 1.68ZM37.81 0.70L36.01 4.44L37.81 10.50L36.76 10.50L35.39 5.73L34.86 6.82L34.86 10.50L33.88 10.50L33.88 4.62L33.88 4.61L34.86 4.61L33.88 1.68L33.88 0.70L34.85 0.70L34.86 0.70L34.86 1.68L34.86 4.61L34.87 4.61L36.74 0.70L37.81 0.70ZM42.06 10.50L40.81 2.67L40.10 7.20L40.81 7.20L40.81 8.18L39.94 8.18L39.56 10.50L38.57 10.50L38.95 8.18L38.57 8.18L38.57 7.20L39.10 7.20L40.14 0.70L41.48 0.70L43.05 10.50L42.06 10.50ZM44.58 0.70L44.58 10.50L43.60 10.50L43.60 0.70L44.58 0.70Z"></path></g><!----><g data-v-423bf9ae="" id="429459a7-bfa8-47c5-8bed-a27cccb80238" transform="matrix(2.8125,0,0,2.8125,92,0)" stroke="none" fill="white"><path d="M9.382 8.675h13.943v13.943L32 31.293V0H.707zM22.618 23.325H8.675V9.382L0 .707V32h31.293z"></path></g><!----><g data-v-423bf9ae="" id="d1304815-4eb9-4c21-93e2-62783c431811" fill="white" transform="matrix(0.7137710987480868,0,0,0.7137710987480868,34.49272238241181,202.8357407166218)"><path d="M14.50 3.92L13.96 3.92L13.92 3.92L12.45 3.92L12.45 4.19C12.45 4.34 12.53 4.42 12.71 4.44L12.84 4.44C12.89 4.44 12.99 4.45 13.13 4.45C13.27 4.45 13.41 4.47 13.58 4.47L11.20 12.24C11.17 12.33 11.14 12.43 11.13 12.54C11.12 12.66 11.09 12.75 11.06 12.87C11.03 12.75 11.02 12.63 10.99 12.53L10.91 12.24L8.11 4.10C8.08 4.05 8.05 3.99 8.01 3.96C7.97 3.93 7.91 3.92 7.84 3.92L7.64 3.92C7.57 3.92 7.52 3.93 7.48 3.98C7.43 4.02 7.39 4.05 7.38 4.10L4.58 12.25C4.55 12.35 4.52 12.43 4.49 12.54C4.47 12.64 4.45 12.75 4.42 12.88C4.41 12.78 4.38 12.67 4.35 12.54C4.34 12.43 4.31 12.33 4.28 12.24L1.90 4.47C2.07 4.47 2.21 4.45 2.34 4.45C2.46 4.45 2.55 4.44 2.60 4.44L2.72 4.44C2.90 4.42 3.00 4.34 3.00 4.19L3.00 3.92L1.53 3.92L0.94 3.92L0.34 3.92L0.34 4.19C0.34 4.34 0.43 4.42 0.62 4.44L0.71 4.44C0.76 4.44 0.80 4.45 0.87 4.45C0.94 4.45 1.02 4.47 1.11 4.47L4.06 13.82L4.69 13.82L7.63 5.22C7.67 5.11 7.70 5.00 7.73 4.87C7.76 5.00 7.78 5.11 7.83 5.22L10.75 13.82L11.40 13.82L14.34 4.47C14.42 4.47 14.49 4.45 14.56 4.45C14.63 4.45 14.69 4.44 14.73 4.44L14.83 4.44C15.01 4.42 15.09 4.34 15.09 4.19L15.09 3.92ZM29.64 13.22L29.18 13.17L25.40 3.91L24.68 3.91L20.89 13.17L20.44 13.22C20.26 13.23 20.17 13.33 20.17 13.50L20.17 13.82L20.62 13.82L20.92 13.82L21.17 13.82L21.27 13.82L22.58 13.82L22.58 13.50C22.58 13.31 22.47 13.23 22.26 13.22C22.25 13.22 22.22 13.20 22.18 13.20C22.13 13.20 22.08 13.19 21.98 13.19C21.88 13.19 21.76 13.19 21.62 13.17L22.60 10.75L22.67 10.57L27.40 10.57L27.47 10.75L28.45 13.17C28.31 13.19 28.20 13.19 28.10 13.19C28 13.19 27.93 13.20 27.89 13.20C27.85 13.20 27.82 13.22 27.80 13.22C27.59 13.23 27.48 13.31 27.48 13.50L27.48 13.82L28.80 13.82L28.90 13.82L29.16 13.82L29.44 13.82L29.90 13.82L29.90 13.50C29.90 13.33 29.82 13.23 29.64 13.22ZM24.84 5.22C24.86 5.14 24.91 5.04 24.93 4.94C24.96 4.84 25.00 4.75 25.03 4.63C25.06 4.75 25.10 4.84 25.13 4.94C25.16 5.04 25.20 5.12 25.23 5.21L27.19 10.04L22.89 10.04ZM45.65 3.92L45.46 3.92L38.16 3.92L37.95 3.92L37.86 3.92L37.86 5.96L38.21 5.96C38.40 5.96 38.49 5.85 38.50 5.63C38.50 5.53 38.53 5.17 38.56 4.52L41.45 4.52L41.45 13.26C41.29 13.26 41.15 13.27 41.01 13.27C40.87 13.27 40.75 13.29 40.68 13.29L40.56 13.29C40.38 13.30 40.28 13.38 40.28 13.54L40.28 13.82L41.45 13.82L42.17 13.82L43.36 13.82L43.36 13.54C43.36 13.38 43.26 13.30 43.08 13.29L42.94 13.29C42.87 13.29 42.77 13.27 42.63 13.27C42.49 13.27 42.34 13.26 42.17 13.26L42.17 4.52L45.05 4.52C45.09 5.24 45.11 5.60 45.11 5.63C45.12 5.85 45.22 5.96 45.42 5.96L45.75 5.96L45.75 3.92ZM60.75 12.21C60.72 12.18 60.68 12.15 60.63 12.15C60.61 12.15 60.59 12.15 60.56 12.17C60.55 12.18 60.52 12.21 60.49 12.22C60.30 12.40 60.09 12.56 59.89 12.70C59.70 12.84 59.49 12.94 59.25 13.03C59.01 13.13 58.76 13.20 58.48 13.24C58.20 13.29 57.89 13.31 57.54 13.31C56.98 13.31 56.43 13.22 55.96 13.01C55.47 12.81 55.06 12.52 54.71 12.14C54.36 11.76 54.07 11.28 53.87 10.74C53.68 10.19 53.58 9.56 53.58 8.86C53.58 8.18 53.68 7.56 53.87 7.01C54.08 6.47 54.36 6.01 54.73 5.61C55.09 5.24 55.52 4.94 56.03 4.73C56.53 4.52 57.08 4.42 57.68 4.42C58.58 4.42 59.40 4.56 60.13 4.89C60.17 5.78 60.21 6.30 60.21 6.41C60.23 6.64 60.31 6.75 60.51 6.75L60.84 6.75L60.84 4.51C59.67 4.03 58.60 3.81 57.68 3.81C56.97 3.81 56.32 3.92 55.72 4.17C55.13 4.42 54.60 4.76 54.18 5.21C53.75 5.66 53.42 6.19 53.19 6.80C52.95 7.42 52.84 8.11 52.84 8.86C52.84 9.63 52.96 10.32 53.19 10.95C53.41 11.58 53.73 12.10 54.14 12.54C54.54 12.99 55.03 13.33 55.61 13.57C56.18 13.80 56.80 13.93 57.48 13.93C57.89 13.93 58.27 13.90 58.62 13.83C58.95 13.76 59.28 13.66 59.57 13.54C59.85 13.41 60.12 13.26 60.35 13.09C60.59 12.91 60.82 12.73 61.03 12.50ZM78.76 4.44C78.95 4.42 79.04 4.34 79.04 4.19L79.04 3.92L77.87 3.92L77.14 3.92L75.96 3.92L75.96 4.19C75.96 4.34 76.06 4.42 76.24 4.44L76.37 4.44C76.44 4.44 76.55 4.45 76.69 4.45C76.83 4.45 76.97 4.47 77.14 4.47L77.14 8.53L70.94 8.53L70.94 4.47C71.11 4.47 71.26 4.45 71.40 4.45C71.54 4.45 71.64 4.44 71.71 4.44L71.85 4.44C72.03 4.42 72.11 4.34 72.11 4.19L72.11 3.92L70.94 3.92L70.22 3.92L69.03 3.92L69.03 4.19C69.03 4.34 69.13 4.42 69.31 4.44L69.45 4.44C69.52 4.44 69.62 4.45 69.76 4.45C69.90 4.45 70.06 4.47 70.22 4.47L70.22 13.26C70.06 13.26 69.90 13.27 69.76 13.27C69.62 13.27 69.52 13.29 69.45 13.29L69.31 13.29C69.13 13.30 69.03 13.38 69.03 13.54L69.03 13.82L70.22 13.82L70.94 13.82L72.11 13.82L72.11 13.54C72.11 13.38 72.03 13.30 71.85 13.29L71.71 13.29C71.64 13.29 71.54 13.27 71.40 13.27C71.26 13.27 71.11 13.26 70.94 13.26L70.94 9.07L77.14 9.07L77.14 13.26C76.97 13.26 76.83 13.27 76.69 13.27C76.55 13.27 76.44 13.29 76.37 13.29L76.24 13.29C76.06 13.30 75.96 13.38 75.96 13.54L75.96 13.82L77.14 13.82L77.87 13.82L79.04 13.82L79.04 13.54C79.04 13.38 78.95 13.30 78.76 13.29L78.64 13.29C78.57 13.29 78.46 13.27 78.32 13.27C78.18 13.27 78.04 13.26 77.87 13.26L77.87 4.47C78.04 4.47 78.18 4.45 78.32 4.45C78.46 4.45 78.57 4.44 78.64 4.44ZM87.67 13.29C87.67 13.47 87.72 13.61 87.85 13.73C87.98 13.86 88.13 13.93 88.31 13.93C88.40 13.93 88.48 13.90 88.56 13.87C88.65 13.85 88.70 13.79 88.76 13.73C88.82 13.68 88.87 13.62 88.90 13.54C88.93 13.45 88.96 13.38 88.96 13.29C88.96 13.20 88.93 13.12 88.90 13.03C88.87 12.95 88.82 12.88 88.76 12.82C88.70 12.77 88.65 12.71 88.56 12.68C88.48 12.66 88.40 12.63 88.31 12.63C88.21 12.63 88.13 12.66 88.05 12.68C87.96 12.71 87.91 12.77 87.85 12.82C87.79 12.88 87.74 12.95 87.71 13.03C87.68 13.12 87.67 13.20 87.67 13.29ZM115.11 3.92L114.76 3.92L109.17 3.92L107.98 3.92L107.98 4.19C107.98 4.34 108.08 4.42 108.26 4.44L108.40 4.44C108.47 4.44 108.57 4.45 108.71 4.45C108.85 4.45 109.00 4.47 109.17 4.47L109.17 13.26C109.00 13.26 108.85 13.27 108.71 13.27C108.57 13.27 108.47 13.29 108.40 13.29L108.26 13.29C108.08 13.30 107.98 13.38 107.98 13.54L107.98 13.82L109.17 13.82L109.89 13.82L111.06 13.82L111.06 13.54C111.06 13.38 110.98 13.30 110.80 13.29L110.66 13.29C110.59 13.29 110.49 13.27 110.35 13.27C110.21 13.27 110.05 13.26 109.89 13.26L109.89 9.27L113.58 9.27L113.58 8.67L109.89 8.67L109.89 4.51L114.49 4.51C114.52 5.18 114.55 5.56 114.55 5.63C114.56 5.85 114.66 5.96 114.86 5.96L115.19 5.96L115.19 3.92ZM124.50 3.92L123.31 3.92L123.31 4.19C123.31 4.34 123.41 4.42 123.59 4.44L123.73 4.44C123.80 4.44 123.90 4.45 124.04 4.45C124.18 4.45 124.33 4.47 124.50 4.47L124.50 13.26C124.33 13.26 124.18 13.27 124.04 13.27C123.90 13.27 123.80 13.29 123.73 13.29L123.59 13.29C123.41 13.30 123.33 13.38 123.33 13.54L123.33 13.82L124.50 13.82L130.44 13.82L130.44 13.22L130.44 11.76L130.09 11.76C129.89 11.76 129.81 11.89 129.79 12.11C129.79 12.14 129.78 12.19 129.78 12.29C129.78 12.39 129.78 12.53 129.77 12.74C129.75 12.95 129.74 13.09 129.74 13.22L125.22 13.22L125.22 9.09L129.16 9.09L129.16 8.51L125.22 8.51L125.22 4.51L129.74 4.51C129.77 5.12 129.79 5.50 129.79 5.63C129.81 5.85 129.89 5.96 130.09 5.96L130.44 5.96L130.44 4.51L130.44 3.92ZM140.21 3.92L139.02 3.92L139.02 4.19C139.02 4.34 139.12 4.42 139.30 4.44L139.44 4.44C139.51 4.44 139.61 4.45 139.75 4.45C139.89 4.45 140.04 4.47 140.21 4.47L140.21 13.26C140.04 13.26 139.89 13.27 139.75 13.27C139.61 13.27 139.51 13.29 139.44 13.29L139.30 13.29C139.12 13.30 139.03 13.38 139.03 13.54L139.03 13.82L140.21 13.82L146.15 13.82L146.15 13.22L146.15 11.76L145.80 11.76C145.60 11.76 145.52 11.89 145.50 12.11C145.50 12.14 145.49 12.19 145.49 12.29C145.49 12.39 145.49 12.53 145.47 12.74C145.46 12.95 145.45 13.09 145.45 13.22L140.92 13.22L140.92 9.09L144.87 9.09L144.87 8.51L140.92 8.51L140.92 4.51L145.45 4.51C145.47 5.12 145.50 5.50 145.50 5.63C145.52 5.85 145.60 5.96 145.80 5.96L146.15 5.96L146.15 4.51L146.15 3.92ZM161.10 11.97C160.90 11.97 160.82 12.08 160.80 12.31C160.80 12.32 160.80 12.38 160.79 12.43C160.78 12.49 160.78 12.59 160.76 12.71C160.75 12.84 160.73 13.01 160.72 13.20L156.63 13.20L156.63 4.47C156.80 4.47 156.94 4.45 157.08 4.45C157.22 4.45 157.33 4.44 157.40 4.44L157.53 4.44C157.71 4.42 157.81 4.34 157.81 4.19L157.81 3.92L156.63 3.92L155.92 3.92L154.73 3.92L154.73 4.19C154.73 4.34 154.83 4.42 155.01 4.44L155.15 4.44C155.22 4.44 155.32 4.45 155.46 4.45C155.60 4.45 155.75 4.47 155.92 4.47L155.92 13.26C155.75 13.26 155.60 13.27 155.46 13.27C155.32 13.27 155.22 13.29 155.15 13.29L155.01 13.29C154.83 13.30 154.73 13.38 154.73 13.54L154.73 13.82L155.92 13.82L161.20 13.82L161.32 13.82L161.45 13.82L161.45 13.55L161.45 12.99L161.45 11.97L161.17 11.97ZM170.52 13.29C170.52 13.47 170.58 13.61 170.70 13.73C170.83 13.86 170.98 13.93 171.16 13.93C171.25 13.93 171.33 13.90 171.42 13.87C171.50 13.85 171.56 13.79 171.61 13.73C171.67 13.68 171.72 13.62 171.75 13.54C171.78 13.45 171.81 13.38 171.81 13.29C171.81 13.20 171.78 13.12 171.75 13.03C171.72 12.95 171.67 12.88 171.61 12.82C171.56 12.77 171.50 12.71 171.42 12.68C171.33 12.66 171.25 12.63 171.16 12.63C171.07 12.63 170.98 12.66 170.90 12.68C170.81 12.71 170.76 12.77 170.70 12.82C170.65 12.88 170.59 12.95 170.56 13.03C170.53 13.12 170.52 13.20 170.52 13.29ZM198.83 13.29L198.73 13.29L198.55 13.29C198.46 13.29 198.38 13.27 198.30 13.27L195.33 9.53C195.24 9.42 195.13 9.32 195.02 9.25C195.45 9.21 195.85 9.11 196.20 8.96C196.55 8.81 196.83 8.61 197.08 8.37C197.32 8.13 197.51 7.85 197.64 7.55C197.76 7.24 197.83 6.89 197.83 6.51C197.83 5.66 197.55 5.03 196.99 4.58C196.43 4.14 195.58 3.92 194.43 3.92L192.02 3.92L190.85 3.92L190.85 4.19C190.85 4.34 190.93 4.42 191.11 4.44L191.25 4.44C191.32 4.44 191.42 4.45 191.56 4.45C191.70 4.45 191.86 4.47 192.02 4.47L192.02 13.26C191.86 13.26 191.70 13.27 191.56 13.27C191.42 13.27 191.32 13.29 191.25 13.29L191.11 13.29C190.93 13.30 190.83 13.38 190.83 13.54L190.83 13.82L192.02 13.82L192.74 13.82L193.91 13.82L193.91 13.54C193.91 13.38 193.82 13.30 193.63 13.29L193.49 13.29C193.42 13.29 193.33 13.27 193.19 13.27C193.05 13.27 192.91 13.26 192.74 13.26L192.74 9.34L193.91 9.34C194.11 9.34 194.25 9.35 194.33 9.39C194.42 9.44 194.50 9.52 194.59 9.62L197.76 13.64C197.82 13.71 197.86 13.75 197.92 13.78C197.97 13.80 198.04 13.82 198.11 13.82L198.18 13.82L198.73 13.82L199.09 13.82L199.09 13.54C199.09 13.38 199.01 13.30 198.83 13.29ZM194.33 8.81L192.74 8.81L192.74 4.48L194.43 4.48C195.31 4.48 195.99 4.66 196.45 5.00C196.91 5.33 197.13 5.87 197.13 6.57C197.13 6.92 197.08 7.21 196.95 7.49C196.83 7.77 196.63 7.99 196.39 8.19C196.15 8.39 195.86 8.55 195.51 8.65C195.16 8.75 194.77 8.81 194.33 8.81ZM208.49 3.92L207.30 3.92L207.30 4.19C207.30 4.34 207.40 4.42 207.58 4.44L207.72 4.44C207.79 4.44 207.89 4.45 208.03 4.45C208.17 4.45 208.32 4.47 208.49 4.47L208.49 13.26C208.32 13.26 208.17 13.27 208.03 13.27C207.89 13.27 207.79 13.29 207.72 13.29L207.58 13.29C207.40 13.30 207.31 13.38 207.31 13.54L207.31 13.82L208.49 13.82L214.42 13.82L214.42 13.22L214.42 11.76L214.07 11.76C213.88 11.76 213.79 11.89 213.78 12.11C213.78 12.14 213.77 12.19 213.77 12.29C213.77 12.39 213.77 12.53 213.75 12.74C213.74 12.95 213.72 13.09 213.72 13.22L209.20 13.22L209.20 9.09L213.15 9.09L213.15 8.51L209.20 8.51L209.20 4.51L213.72 4.51C213.75 5.12 213.78 5.50 213.78 5.63C213.79 5.85 213.88 5.96 214.07 5.96L214.42 5.96L214.42 4.51L214.42 3.92ZM229.24 4.68C228.65 4.17 227.77 3.92 226.60 3.92L224.20 3.92L223.01 3.92L223.01 4.19C223.01 4.34 223.10 4.42 223.29 4.44L223.43 4.44C223.50 4.44 223.59 4.45 223.73 4.45C223.87 4.45 224.03 4.47 224.20 4.47L224.20 13.26C224.03 13.26 223.87 13.27 223.73 13.27C223.59 13.27 223.50 13.29 223.43 13.29L223.29 13.29C223.10 13.30 223.01 13.38 223.01 13.54L223.01 13.82L224.20 13.82L224.91 13.82L226.09 13.82L226.09 13.54C226.09 13.38 225.99 13.30 225.81 13.29L225.68 13.29C225.61 13.29 225.50 13.27 225.36 13.27C225.22 13.27 225.08 13.26 224.91 13.26L224.91 9.83L226.60 9.83C227.15 9.83 227.64 9.74 228.07 9.60C228.51 9.45 228.87 9.25 229.18 8.99C229.49 8.72 229.73 8.41 229.88 8.05C230.05 7.69 230.12 7.29 230.12 6.86C230.12 5.92 229.82 5.18 229.24 4.68ZM229.21 7.81C229.08 8.11 228.90 8.36 228.66 8.57C228.42 8.78 228.13 8.95 227.78 9.07C227.43 9.20 227.04 9.25 226.60 9.25L224.91 9.25L224.91 4.48L226.60 4.48C227.53 4.48 228.23 4.69 228.70 5.10C229.17 5.50 229.40 6.09 229.40 6.85C229.40 7.20 229.33 7.52 229.21 7.81ZM239.50 3.92L238.31 3.92L238.31 4.19C238.31 4.34 238.41 4.42 238.59 4.44L238.73 4.44C238.80 4.44 238.90 4.45 239.04 4.45C239.18 4.45 239.33 4.47 239.50 4.47L239.50 13.26C239.33 13.26 239.18 13.27 239.04 13.27C238.90 13.27 238.80 13.29 238.73 13.29L238.59 13.29C238.41 13.30 238.32 13.38 238.32 13.54L238.32 13.82L239.50 13.82L245.43 13.82L245.43 13.22L245.43 11.76L245.08 11.76C244.89 11.76 244.80 11.89 244.79 12.11C244.79 12.14 244.78 12.19 244.78 12.29C244.78 12.39 244.78 12.53 244.76 12.74C244.75 12.95 244.73 13.09 244.73 13.22L240.21 13.22L240.21 9.09L244.16 9.09L244.16 8.51L240.21 8.51L240.21 4.51L244.73 4.51C244.76 5.12 244.79 5.50 244.79 5.63C244.80 5.85 244.89 5.96 245.08 5.96L245.43 5.96L245.43 4.51L245.43 3.92ZM263.31 13.22L262.85 13.17L259.07 3.91L258.36 3.91L254.56 13.17L254.11 13.22C253.93 13.23 253.85 13.33 253.85 13.50L253.85 13.82L254.30 13.82L254.59 13.82L254.84 13.82L254.94 13.82L256.26 13.82L256.26 13.50C256.26 13.31 256.14 13.23 255.93 13.22C255.92 13.22 255.89 13.20 255.85 13.20C255.81 13.20 255.75 13.19 255.65 13.19C255.56 13.19 255.43 13.19 255.29 13.17L256.27 10.75L256.34 10.57L261.07 10.57L261.14 10.75L262.12 13.17C261.98 13.19 261.87 13.19 261.77 13.19C261.67 13.19 261.60 13.20 261.56 13.20C261.52 13.20 261.49 13.22 261.48 13.22C261.27 13.23 261.16 13.31 261.16 13.50L261.16 13.82L262.47 13.82L262.57 13.82L262.84 13.82L263.12 13.82L263.58 13.82L263.58 13.50C263.58 13.33 263.49 13.23 263.31 13.22ZM258.51 5.22C258.54 5.14 258.58 5.04 258.61 4.94C258.64 4.84 258.68 4.75 258.71 4.63C258.73 4.75 258.78 4.84 258.80 4.94C258.83 5.04 258.87 5.12 258.90 5.21L260.86 10.04L256.56 10.04ZM279.33 3.92L279.13 3.92L271.84 3.92L271.63 3.92L271.53 3.92L271.53 5.96L271.88 5.96C272.08 5.96 272.16 5.85 272.17 5.63C272.17 5.53 272.20 5.17 272.23 4.52L275.13 4.52L275.13 13.26C274.96 13.26 274.82 13.27 274.68 13.27C274.54 13.27 274.43 13.29 274.36 13.29L274.23 13.29C274.05 13.30 273.95 13.38 273.95 13.54L273.95 13.82L275.13 13.82L275.84 13.82L277.03 13.82L277.03 13.54C277.03 13.38 276.93 13.30 276.75 13.29L276.61 13.29C276.54 13.29 276.44 13.27 276.30 13.27C276.16 13.27 276.01 13.26 275.84 13.26L275.84 4.52L278.73 4.52C278.77 5.24 278.78 5.60 278.78 5.63C278.80 5.85 278.89 5.96 279.09 5.96L279.43 5.96L279.43 3.92ZM286.55 13.29C286.55 13.47 286.61 13.61 286.73 13.73C286.86 13.86 287.01 13.93 287.20 13.93C287.28 13.93 287.36 13.90 287.45 13.87C287.53 13.85 287.59 13.79 287.64 13.73C287.70 13.68 287.76 13.62 287.78 13.54C287.81 13.45 287.84 13.38 287.84 13.29C287.84 13.20 287.81 13.12 287.78 13.03C287.76 12.95 287.70 12.88 287.64 12.82C287.59 12.77 287.53 12.71 287.45 12.68C287.36 12.66 287.28 12.63 287.20 12.63C287.10 12.63 287.01 12.66 286.93 12.68C286.85 12.71 286.79 12.77 286.73 12.82C286.68 12.88 286.62 12.95 286.59 13.03C286.57 13.12 286.55 13.20 286.55 13.29Z"></path></g></svg>